<svg width="44" height="48" viewBox="0 0 44 48" fill="none" xmlns="http://www.w3.org/2000/svg">
<rect y="0.885254" width="44" height="46.2842" rx="22" fill="#23AA49"/>
<path d="M29.24 18.3286H28.84L25.46 14.7731C25.19 14.4891 24.75 14.4891 24.47 14.7731C24.2 15.0571 24.2 15.52 24.47 15.8145L26.86 18.3286H17.14L19.53 15.8145C19.8 15.5305 19.8 15.0677 19.53 14.7731C19.26 14.4891 18.82 14.4891 18.54 14.7731L15.17 18.3286H14.77C13.87 18.3286 12 18.3286 12 21.0215C12 22.0418 12.2 22.7151 12.62 23.1569C12.86 23.4199 13.15 23.5566 13.46 23.6302C13.75 23.7039 14.06 23.7144 14.36 23.7144H29.64C29.95 23.7144 30.24 23.6933 30.52 23.6302C31.36 23.4199 32 22.7887 32 21.0215C32 18.3286 30.13 18.3286 29.24 18.3286Z" fill="white"/>
<path d="M29.05 25.0819H14.87C14.25 25.0819 13.78 25.6604 13.88 26.3021L14.72 31.7089C15 33.5182 15.75 35.601 19.08 35.601H24.69C28.06 35.601 28.66 33.8233 29.02 31.8352L30.03 26.3337C30.15 25.6815 29.68 25.0819 29.05 25.0819ZM20.61 31.8667C20.61 32.277 20.3 32.6031 19.92 32.6031C19.53 32.6031 19.22 32.277 19.22 31.8667V28.3954C19.22 27.9957 19.53 27.6591 19.92 27.6591C20.3 27.6591 20.61 27.9957 20.61 28.3954V31.8667ZM24.89 31.8667C24.89 32.277 24.58 32.6031 24.19 32.6031C23.81 32.6031 23.49 32.277 23.49 31.8667V28.3954C23.49 27.9957 23.81 27.6591 24.19 27.6591C24.58 27.6591 24.89 27.9957 24.89 28.3954V31.8667Z" fill="white"/>
</svg>
