<svg width="24" height="26" viewBox="0 0 24 26" fill="none" xmlns="http://www.w3.org/2000/svg">
<rect y="0.754089" width="24" height="25.2459" fill="white"/>
<path d="M7.24 2.85791H5.34C3.15 2.85791 2 4.06761 2 6.36078V8.35941C2 10.6526 3.15 11.8623 5.33 11.8623H7.23C9.41 11.8623 10.56 10.6526 10.56 8.35941V6.36078C10.57 4.06761 9.42 2.85791 7.24 2.85791Z" fill="#DBDBDB"/>
<path d="M18.6699 2.85791H16.7699C14.5899 2.85791 13.4399 4.06761 13.4399 6.36078V8.35941C13.4399 10.6526 14.5899 11.8623 16.7699 11.8623H18.6699C20.8499 11.8623 21.9999 10.6526 21.9999 8.35941V6.36078C21.9999 4.06761 20.8499 2.85791 18.6699 2.85791Z" fill="#DBDBDB"/>
<path d="M18.6699 14.8813H16.7699C14.5899 14.8813 13.4399 16.091 13.4399 18.3842V20.3828C13.4399 22.676 14.5899 23.8857 16.7699 23.8857H18.6699C20.8499 23.8857 21.9999 22.676 21.9999 20.3828V18.3842C21.9999 16.091 20.8499 14.8813 18.6699 14.8813Z" fill="#DBDBDB"/>
<path d="M7.24 14.8813H5.34C3.15 14.8813 2 16.091 2 18.3842V20.3828C2 22.6865 3.15 23.8962 5.33 23.8962H7.23C9.41 23.8962 10.56 22.6865 10.56 20.3933V18.3947C10.57 16.091 9.42 14.8813 7.24 14.8813Z" fill="#DBDBDB"/>
</svg>
