<svg width="24" height="26" viewBox="0 0 24 26" fill="none" xmlns="http://www.w3.org/2000/svg">
<rect y="0.598358" width="24" height="25.2459" fill="white"/>
<path d="M8.75 5.06898V3.49111C8.75 3.05983 8.41 2.70218 8 2.70218C7.59 2.70218 7.25 3.05983 7.25 3.49111V5.1321C7.5 5.10054 7.73 5.06898 8 5.06898H8.75Z" fill="#DBDBDB"/>
<path d="M16.75 5.1321V3.49111C16.75 3.05983 16.41 2.70218 16 2.70218C15.59 2.70218 15.25 3.05983 15.25 3.49111V5.06898H16C16.27 5.06898 16.5 5.10054 16.75 5.1321Z" fill="#DBDBDB"/>
<path d="M16.75 5.13211V6.64687C16.75 7.07815 16.41 7.4358 16 7.4358C15.59 7.4358 15.25 7.07815 15.25 6.64687V5.069H8.75V6.64687C8.75 7.07815 8.41 7.4358 8 7.4358C7.59 7.4358 7.25 7.07815 7.25 6.64687V5.13211C4.3 5.41613 3 7.41477 3 10.3286V19.2698C3 22.4256 4.5 24.5294 8 24.5294H16C19.5 24.5294 21 22.4256 21 19.2698V10.3286C21 7.41477 19.7 5.41613 16.75 5.13211ZM12 19.0068H8C7.59 19.0068 7.25 18.6492 7.25 18.2179C7.25 17.7866 7.59 17.429 8 17.429H12C12.41 17.429 12.75 17.7866 12.75 18.2179C12.75 18.6492 12.41 19.0068 12 19.0068ZM16 13.7473H8C7.59 13.7473 7.25 13.3896 7.25 12.9583C7.25 12.5271 7.59 12.1694 8 12.1694H16C16.41 12.1694 16.75 12.5271 16.75 12.9583C16.75 13.3896 16.41 13.7473 16 13.7473Z" fill="#DBDBDB"/>
</svg>
