<svg width="36" height="36" viewBox="0 0 36 36" fill="none" xmlns="http://www.w3.org/2000/svg">
<g clip-path="url(#clip0_4_239)">
<path d="M33.5488 22.4636C33.5488 23.8045 34.294 24.9763 35.4037 25.608C35.7486 25.8042 35.9668 26.1573 35.966 26.5458L35.9619 28.2916C35.9598 29.218 35.1858 29.9677 34.233 29.9649L24.9207 29.9437C24.5454 29.9429 24.1936 29.7588 23.9927 29.4506C23.3286 28.4312 22.1583 27.7549 20.8259 27.7549C19.5001 27.7549 18.3347 28.4249 17.669 29.4354C17.4664 29.7429 17.1138 29.9257 16.7382 29.9249L1.72108 29.89C0.768353 29.8873 -0.00282343 29.1349 9.93186e-08 28.2085L0.0119295 23.2328C0.0131295 22.745 0.3528 22.3244 0.836259 22.194C2.41807 21.7674 3.57932 20.3576 3.57932 18.684C3.57932 17.0166 2.42668 15.6108 0.854188 15.1786C0.371012 15.0458 0.0328236 14.6239 0.0340236 14.1357L0.036706 13.0771C0.0388236 12.3212 0.560471 11.6594 1.31111 11.4623L21.339 6.18674C22.8714 5.78335 24.5041 5.96068 25.9072 6.68292L35.0817 11.4067C35.6479 11.6981 36.0013 12.2698 35.9999 12.8931L35.986 18.373C35.985 18.7626 35.7645 19.1158 35.4178 19.3112C34.3002 19.9411 33.5488 21.117 33.5488 22.4636Z" fill="url(#paint0_linear_4_239)"/>
<path d="M35.6399 11.8643C35.492 11.678 35.3036 11.5204 35.082 11.4063L25.9076 6.68291C24.5044 5.96047 22.8714 5.78321 21.3389 6.1868L1.31096 11.4621C1.07364 11.5246 0.859339 11.6337 0.67701 11.7773L35.6399 11.8643Z" fill="url(#paint1_linear_4_239)"/>
<path d="M8.05475 27.8923C9.86279 27.8923 11.3285 26.4673 11.3285 24.7095C11.3285 22.9517 9.86279 21.5267 8.05475 21.5267C6.24672 21.5267 4.78101 22.9517 4.78101 24.7095C4.78101 26.4673 6.24672 27.8923 8.05475 27.8923Z" fill="url(#paint2_linear_4_239)"/>
<path d="M26.8563 26.518C28.6643 26.518 30.13 25.093 30.13 23.3352C30.13 21.5773 28.6643 20.1524 26.8563 20.1524C25.0482 20.1524 23.5825 21.5773 23.5825 23.3352C23.5825 25.093 25.0482 26.518 26.8563 26.518Z" fill="url(#paint3_linear_4_239)"/>
<path d="M15.8365 19.3156C17.1409 19.3156 18.1982 18.2877 18.1982 17.0196C18.1982 15.7515 17.1409 14.7235 15.8365 14.7235C14.5322 14.7235 13.4749 15.7515 13.4749 17.0196C13.4749 18.2877 14.5322 19.3156 15.8365 19.3156Z" fill="url(#paint4_linear_4_239)"/>
<path d="M29.6903 17.9412C30.9946 17.9412 32.052 16.9133 32.052 15.6452C32.052 14.3771 30.9946 13.3491 29.6903 13.3491C28.386 13.3491 27.3287 14.3771 27.3287 15.6452C27.3287 16.9133 28.386 17.9412 29.6903 17.9412Z" fill="url(#paint5_linear_4_239)"/>
<path d="M23.5362 13.6271C25.0491 13.6271 26.2756 12.4347 26.2756 10.9638C26.2756 9.49282 25.0491 8.30039 23.5362 8.30039C22.0232 8.30039 20.7967 9.49282 20.7967 10.9638C20.7967 12.4347 22.0232 13.6271 23.5362 13.6271Z" fill="url(#paint6_linear_4_239)"/>
<path d="M15.0551 7.84189L10.3199 9.08913C10.8217 9.63842 11.5533 9.98492 12.3683 9.98492C13.6981 9.98499 14.8062 9.06374 15.0551 7.84189Z" fill="url(#paint7_linear_4_239)"/>
<path d="M2.90322 20.7708C2.41108 21.4537 1.68424 21.9653 0.836259 22.194C0.3528 22.3243 0.0131295 22.7449 0.0119295 23.2327L9.93186e-08 28.2085C-0.00282343 29.1348 0.768353 29.8873 1.72108 29.89L16.7382 29.9249C17.1138 29.9258 17.4664 29.7429 17.669 29.4354C18.3347 28.4248 19.5002 27.7549 20.8259 27.7549C22.1583 27.7549 23.3286 28.4312 23.9927 29.4506C24.1935 29.7588 24.5453 29.9429 24.9206 29.9437L34.2329 29.9649C35.1857 29.9677 35.9597 29.218 35.9618 28.2916L35.9659 26.5458C35.9668 26.1573 35.7485 25.8043 35.4037 25.608C34.294 24.9762 33.5487 23.8044 33.5487 22.4636C33.5487 21.8812 33.6895 21.3309 33.9394 20.8427L2.90322 20.7708Z" fill="url(#paint8_linear_4_239)"/>
<path d="M26.2756 10.9638C26.2756 9.49286 25.0492 8.30039 23.5362 8.30039C22.0232 8.30039 20.7967 9.49279 20.7967 10.9638C20.7967 11.2663 20.8493 11.5567 20.9449 11.8277L26.1229 11.8406C26.2214 11.5659 26.2756 11.2711 26.2756 10.9638Z" fill="url(#paint9_linear_4_239)"/>
</g>
<defs>
<linearGradient id="paint0_linear_4_239" x1="9.93199e-08" y1="17.9701" x2="36" y2="17.9701" gradientUnits="userSpaceOnUse">
<stop stop-color="#FEE97D"/>
<stop offset="1" stop-color="#FE860A"/>
</linearGradient>
<linearGradient id="paint1_linear_4_239" x1="17.6734" y1="8.12697" x2="19.2782" y2="21.0575" gradientUnits="userSpaceOnUse">
<stop stop-color="#FE7701" stop-opacity="0"/>
<stop offset="0.398" stop-color="#E05915" stop-opacity="0.398"/>
<stop offset="1" stop-color="#AC2538"/>
</linearGradient>
<linearGradient id="paint2_linear_4_239" x1="10.67" y1="27.2521" x2="4.83121" y2="21.2465" gradientUnits="userSpaceOnUse">
<stop stop-color="#FEE97D"/>
<stop offset="1" stop-color="#FE860A"/>
</linearGradient>
<linearGradient id="paint3_linear_4_239" x1="29.4715" y1="25.8777" x2="23.6327" y2="19.8721" gradientUnits="userSpaceOnUse">
<stop stop-color="#FEE97D"/>
<stop offset="1" stop-color="#FE860A"/>
</linearGradient>
<linearGradient id="paint4_linear_4_239" x1="17.7232" y1="18.8538" x2="13.5112" y2="14.5214" gradientUnits="userSpaceOnUse">
<stop stop-color="#FEE97D"/>
<stop offset="1" stop-color="#FE860A"/>
</linearGradient>
<linearGradient id="paint5_linear_4_239" x1="31.5769" y1="17.4794" x2="27.3649" y2="13.147" gradientUnits="userSpaceOnUse">
<stop stop-color="#FEE97D"/>
<stop offset="1" stop-color="#FE860A"/>
</linearGradient>
<linearGradient id="paint6_linear_4_239" x1="25.7246" y1="13.0913" x2="20.8388" y2="8.06597" gradientUnits="userSpaceOnUse">
<stop stop-color="#FEE97D"/>
<stop offset="1" stop-color="#FE860A"/>
</linearGradient>
<linearGradient id="paint7_linear_4_239" x1="14.008" y1="9.75269" x2="11.4199" y2="7.09066" gradientUnits="userSpaceOnUse">
<stop stop-color="#FEE97D"/>
<stop offset="1" stop-color="#FE860A"/>
</linearGradient>
<linearGradient id="paint8_linear_4_239" x1="17.983" y1="24.3189" x2="17.983" y2="32.0951" gradientUnits="userSpaceOnUse">
<stop stop-color="#FE7701" stop-opacity="0"/>
<stop offset="0.398" stop-color="#E05915" stop-opacity="0.398"/>
<stop offset="1" stop-color="#AC2538"/>
</linearGradient>
<linearGradient id="paint9_linear_4_239" x1="23.5362" y1="10.1628" x2="23.5362" y2="14.0479" gradientUnits="userSpaceOnUse">
<stop stop-color="#FE7701" stop-opacity="0"/>
<stop offset="0.398" stop-color="#E05915" stop-opacity="0.398"/>
<stop offset="1" stop-color="#AC2538"/>
</linearGradient>
<clipPath id="clip0_4_239">
<rect width="36" height="35" fill="white" transform="translate(0 0.469933)"/>
</clipPath>
</defs>
</svg>
