<svg width="35" height="36" viewBox="0 0 35 36" fill="none" xmlns="http://www.w3.org/2000/svg">
<g clip-path="url(#clip0_4_204)">
<path d="M22.6008 8.48747C20.6782 8.90137 18.8757 10.6018 17.5668 10.6018C16.2578 10.6018 14.4551 8.90137 12.5327 8.48747C8.45467 7.95395 2.66602 10.8031 2.66602 19.5625C2.66602 28.3216 9.00875 35.4699 11.7274 35.4699C14.7477 35.4699 15.1504 34.0603 17.5668 34.0603C19.9831 34.0603 20.3858 35.4699 23.4061 35.4699C26.1248 35.4699 32.4675 28.3216 32.4675 19.5625C32.4675 10.8031 26.6789 7.95395 22.6008 8.48747Z" fill="url(#paint0_radial_4_204)"/>
<path d="M24.678 8.50483C23.9621 8.40389 23.259 8.40122 22.6008 8.48747C20.6784 8.90137 18.8757 10.6018 17.5668 10.6018C17.5336 10.6018 17.4997 10.5999 17.4658 10.5978V12.7295L19.2493 13.0619L31.5241 15.3506L24.678 8.50483Z" fill="url(#paint1_linear_4_204)"/>
<path d="M22.6008 8.48747C20.6782 8.90137 18.8757 10.6018 17.5668 10.6018C17.4997 10.6018 17.4311 10.5962 17.3614 10.5877C17.6503 11.2785 17.9483 11.7669 18.0546 11.9324C18.0522 11.9431 18.0493 11.9538 18.0466 11.9647L18.1443 12.024L31.5409 25.4144C32.115 23.6016 32.4675 21.6266 32.4675 19.5625C32.4675 10.8031 26.6788 7.95395 22.6008 8.48747Z" fill="url(#paint2_linear_4_204)"/>
<path d="M18.0955 11.9944C18.0955 11.9944 11.9466 3.02059 25.5199 0.48809C26.0863 0.382614 26.6335 0.746307 26.7622 1.30787C27.3811 4.00806 28.1294 11.3733 18.0955 11.9944Z" fill="url(#paint3_linear_4_204)"/>
<path d="M26.7622 1.30787C26.6909 0.996513 26.4906 0.746307 26.23 0.602913C21.7329 5.50663 18.0955 11.9944 18.0955 11.9944C28.1293 11.3733 27.3811 4.00806 26.7622 1.30787Z" fill="url(#paint4_linear_4_204)"/>
<path d="M24.5215 4.63371C24.4166 4.6711 24.3087 4.701 24.2024 4.73171C24.0964 4.76295 23.9909 4.79393 23.8841 4.81903C23.7778 4.84653 23.667 4.85855 23.5581 4.8727C23.4491 4.88606 23.3469 4.91623 23.2481 4.96216C23.1503 5.00942 23.0545 5.06096 22.9583 5.12531C23.0382 4.99741 23.118 4.86977 23.1976 4.74159L23.5949 4.12102C23.7266 3.913 23.8694 3.71513 24.0043 3.50925C24.2807 3.1031 24.5704 2.7103 24.8882 2.33566L24.8107 2.25182L24.5269 2.49641L24.384 2.61978C24.3375 2.66197 24.2945 2.70657 24.2497 2.74982C24.0753 2.92713 23.8905 3.09937 23.7258 3.28495C23.3834 3.64838 23.0614 4.02729 22.7364 4.40514C22.6758 4.47937 22.6152 4.55387 22.5546 4.62811C22.5549 4.54826 22.549 4.46896 22.5306 4.38965C22.506 4.28284 22.479 4.17442 22.4681 4.06548C22.4547 3.95626 22.4472 3.84678 22.4398 3.7365C22.4318 3.62621 22.4224 3.5146 22.4213 3.40324C22.4083 3.17867 22.4165 2.9541 22.4181 2.72232L22.3567 2.7071C22.2569 2.91725 22.1722 3.13675 22.1068 3.36292C22.0726 3.47588 22.0464 3.59043 22.0189 3.70605C21.9976 3.82195 21.9759 3.93864 21.9607 4.05613C21.9444 4.17362 21.9209 4.29218 21.903 4.41181C21.8876 4.53144 21.8924 4.65134 21.9223 4.7683C21.9284 4.79126 21.9351 4.81422 21.942 4.83719C22.0181 5.08579 21.9631 5.35629 21.8032 5.5611L21.8002 5.56511C21.5215 5.92186 21.2515 6.28368 20.9791 6.64471C20.9767 6.53256 20.965 6.42681 20.9484 6.32214C20.9297 6.21479 20.8961 6.11359 20.8451 6.01639C20.7946 5.91919 20.7412 5.82119 20.7035 5.71812C20.6632 5.61584 20.6288 5.5117 20.5938 5.40676C20.5585 5.30182 20.5217 5.19634 20.4926 5.08873C20.4237 4.87484 20.3754 4.65508 20.3193 4.4305L20.2557 4.43104C20.2117 4.65935 20.1847 4.893 20.1778 5.12852C20.1732 5.24628 20.1767 5.36377 20.1788 5.4826C20.1871 5.60009 20.1954 5.71865 20.2101 5.83614C20.2237 5.95417 20.2306 6.0746 20.2432 6.19503C20.2581 6.31439 20.2929 6.42948 20.3511 6.53549C20.3775 6.58169 20.4058 6.62762 20.4365 6.67248C20.5871 6.89011 20.57 7.18277 20.4082 7.39212C20.2691 7.57183 20.1292 7.75127 19.9914 7.93179C19.8165 8.16036 19.6536 8.39695 19.5003 8.63941C19.4963 8.54275 19.4856 8.45062 19.4712 8.3593C19.4528 8.25169 19.4191 8.15075 19.3681 8.05328C19.3174 7.95609 19.2643 7.85809 19.2263 7.75501C19.186 7.65301 19.1516 7.5486 19.1166 7.44366C19.0813 7.33898 19.0445 7.23324 19.0154 7.12589C18.9465 6.91174 18.8982 6.69197 18.8421 6.4674L18.7785 6.46793C18.7345 6.69624 18.7075 6.93016 18.7008 7.16541C18.696 7.28317 18.6995 7.40093 18.7019 7.51949C18.7099 7.63699 18.7182 7.75555 18.7329 7.87331C18.7465 7.99107 18.7534 8.1115 18.766 8.23193C18.7812 8.35156 18.8157 8.46664 18.8741 8.57239C18.9331 8.6768 19.002 8.77827 19.0891 8.86932C19.1887 8.97373 19.2143 9.12754 19.1481 9.25572C18.9767 9.58763 18.6715 10.19 18.5313 10.5217C18.3395 10.9847 18.1638 11.4576 18.0466 11.9647L18.1443 12.0237C18.5403 11.6883 18.8861 11.3233 19.2157 10.9489C19.5438 10.5738 19.8525 10.1874 20.1447 9.79057C20.15 9.78363 20.1551 9.77669 20.1601 9.76948C20.2547 9.64157 20.4218 9.60125 20.569 9.66133C20.6774 9.70566 20.7887 9.73263 20.8995 9.75079C21.0189 9.76868 21.1388 9.76147 21.2563 9.73423C21.3735 9.70432 21.4889 9.66908 21.6042 9.64104C21.7196 9.61407 21.8336 9.58096 21.9468 9.54784C22.059 9.50913 22.1706 9.47147 22.2793 9.42635C22.4977 9.33849 22.7079 9.23222 22.9068 9.11179L22.8854 9.05224C22.6553 9.07734 22.4326 9.10778 22.2077 9.11739C22.0969 9.12727 21.985 9.12914 21.8745 9.13262C21.7639 9.13609 21.6542 9.13982 21.5444 9.13742C21.4347 9.13742 21.3241 9.1214 21.2154 9.10751C21.1065 9.09336 20.9999 9.09683 20.8929 9.11659C20.777 9.13982 20.6614 9.16973 20.542 9.21379C20.6814 8.9967 20.8136 8.7748 20.9385 8.54836C21.0368 8.36651 21.1722 8.12298 21.2918 7.90936C21.4189 7.68211 21.6771 7.55501 21.9321 7.60788C22.0568 7.63378 22.1842 7.64099 22.2993 7.65968C22.4189 7.67784 22.5388 7.67063 22.6561 7.64313C22.7736 7.61322 22.8889 7.57824 23.0043 7.5502C23.1196 7.52323 23.2336 7.48985 23.3466 7.45701C23.4587 7.41802 23.5704 7.38064 23.6793 7.33524C23.8977 7.24739 24.1076 7.14138 24.3068 7.02095L24.2852 6.96114C24.055 6.98624 23.8323 7.01695 23.6078 7.02656C23.4967 7.03644 23.3848 7.03831 23.2742 7.04151C23.1639 7.04498 23.0539 7.04872 22.9442 7.04632C22.8344 7.04659 22.7242 7.0303 22.6152 7.01668C22.5065 7.00253 22.4 7.006 22.2926 7.02549C22.0884 7.06635 21.8854 7.12669 21.6598 7.2562C21.9135 6.83617 22.1642 6.41293 22.4243 5.99716L22.4339 5.98087C22.5864 5.72426 22.8665 5.56191 23.1642 5.57953C23.2483 5.5846 23.3316 5.58167 23.4134 5.57419C23.5335 5.56164 23.6478 5.52479 23.7546 5.46898C23.8606 5.4105 23.9637 5.34775 24.0681 5.29167C24.1733 5.23666 24.2753 5.17605 24.3765 5.1157C24.4753 5.05001 24.5741 4.98592 24.6681 4.91489C24.8577 4.77497 25.0345 4.61956 25.1968 4.45347L25.1613 4.40086C24.9445 4.48284 24.7365 4.56829 24.5215 4.63371Z" fill="url(#paint5_linear_4_204)"/>
<path d="M18.3022 12.8205C18.0394 12.8427 17.7686 12.8547 17.4931 12.8547C17.2984 12.8547 17.1077 12.8491 16.9197 12.8371C16.8965 11.5017 16.7502 9.86294 16.3096 8.22418C16.0476 7.24819 15.681 6.27113 15.1731 5.35763C14.3141 3.81393 13.4449 3.17413 13.4358 3.16772C13.1279 2.94476 13.0561 2.5143 13.2761 2.20455C13.4975 1.89587 13.9242 1.8211 14.2348 2.03953C14.3611 2.12818 16.6311 3.77975 17.7243 8.15315C18.0514 9.45732 18.2728 11.0021 18.3022 12.8205Z" fill="url(#paint6_linear_4_204)"/>
<path d="M4.08047 26.788C6.11042 31.9337 9.81518 35.4699 11.7274 35.4699C14.7477 35.4699 15.1504 34.0603 17.5668 34.0603C19.9831 34.0603 20.3858 35.4699 23.4061 35.4699C25.3183 35.4699 29.0231 31.9337 31.053 26.788H4.08047Z" fill="url(#paint7_linear_4_204)"/>
<path d="M22.9092 11.1759C22.7103 11.3241 22.506 11.4496 22.2964 11.5604C22.0827 11.6659 21.8686 11.7618 21.648 11.8424C21.209 12.0066 20.7559 12.1241 20.2995 12.2171C19.3858 12.4013 18.4536 12.479 17.5211 12.4798C16.5905 12.4763 15.6554 12.4005 14.7424 12.2165C14.285 12.1257 13.8345 12.0029 13.3947 11.8406C13.1723 11.7631 12.9608 11.6632 12.7458 11.5596C12.6427 11.5025 12.5346 11.4486 12.4358 11.3813C12.329 11.322 12.2363 11.2461 12.1327 11.1759C12.271 11.4146 12.4529 11.6288 12.6582 11.8205L21.526 20.688C21.734 20.9142 21.9778 21.1123 22.2339 21.2832C22.6558 21.5652 23.118 21.7839 23.5944 21.9519C24.5509 22.2865 25.5589 22.4341 26.5659 22.436C27.5707 22.4344 28.5822 22.2846 29.5371 21.95C30.0127 21.7794 30.4763 21.5665 30.8976 21.2832C31.3161 21.0012 31.7051 20.6517 31.954 20.221L22.9092 11.1759Z" fill="url(#paint8_linear_4_204)"/>
<path d="M22.9092 11.1759C22.6601 11.6069 22.2713 11.9562 21.8528 12.2384C21.4312 12.5215 20.9676 12.7343 20.4921 12.9049C19.5372 13.2398 18.5259 13.3896 17.5211 13.3909C16.5141 13.3891 15.5058 13.2414 14.5493 12.9068C14.073 12.7391 13.6107 12.5201 13.1888 12.2384C12.7693 11.9586 12.3819 11.6061 12.1327 11.1759C12.2363 11.2461 12.329 11.322 12.4358 11.3813C12.5346 11.4486 12.6427 11.5025 12.7458 11.5596C12.9608 11.6632 13.1723 11.7631 13.3947 11.8406C13.8345 12.0029 14.285 12.1257 14.7424 12.2165C15.6554 12.4005 16.5905 12.4763 17.5211 12.4798C18.4536 12.479 19.3858 12.4013 20.2995 12.2171C20.7559 12.1241 21.209 12.0066 21.648 11.8424C21.8686 11.7618 22.0827 11.6659 22.2964 11.5604C22.506 11.4496 22.7103 11.3241 22.9092 11.1759Z" fill="url(#paint9_linear_4_204)"/>
<path d="M20.1895 18.52C20.1895 13.4871 16.5849 9.40685 12.1383 9.40685C7.69177 9.40685 4.08714 13.4871 4.08714 18.52C4.08714 23.5532 7.69177 27.6332 12.1383 27.6332C16.5849 27.6332 20.1895 23.5532 20.1895 18.52Z" fill="url(#paint10_linear_4_204)"/>
</g>
<defs>
<radialGradient id="paint0_radial_4_204" cx="0" cy="0" r="1" gradientUnits="userSpaceOnUse" gradientTransform="translate(5.89262 9.22089) scale(30.8424 30.8424)">
<stop stop-color="#FF4B3E"/>
<stop offset="0.4462" stop-color="#FD4A3D"/>
<stop offset="0.6069" stop-color="#F64939"/>
<stop offset="0.7215" stop-color="#EB4533"/>
<stop offset="0.8141" stop-color="#DA412A"/>
<stop offset="0.8935" stop-color="#C43A1F"/>
<stop offset="0.9625" stop-color="#A93311"/>
<stop offset="1" stop-color="#972E07"/>
</radialGradient>
<linearGradient id="paint1_linear_4_204" x1="24.1326" y1="12.7807" x2="22.4426" y2="6.90723" gradientUnits="userSpaceOnUse">
<stop stop-color="#FF1D25" stop-opacity="0"/>
<stop offset="1" stop-color="#FF1D25"/>
</linearGradient>
<linearGradient id="paint2_linear_4_204" x1="25.742" y1="14.6181" x2="19.9294" y2="4.43047" gradientUnits="userSpaceOnUse">
<stop stop-color="#972E07" stop-opacity="0"/>
<stop offset="1" stop-color="#582707"/>
</linearGradient>
<linearGradient id="paint3_linear_4_204" x1="21.1786" y1="5.54373" x2="27.9644" y2="10.6974" gradientUnits="userSpaceOnUse">
<stop stop-color="#ACC130"/>
<stop offset="1" stop-color="#97A03B"/>
</linearGradient>
<linearGradient id="paint4_linear_4_204" x1="25.1589" y1="7.96489" x2="19.2704" y2="4.69027" gradientUnits="userSpaceOnUse">
<stop stop-color="#97A03B" stop-opacity="0"/>
<stop offset="1" stop-color="#575C55"/>
</linearGradient>
<linearGradient id="paint5_linear_4_204" x1="20.1308" y1="6.03425" x2="21.7793" y2="7.39844" gradientUnits="userSpaceOnUse">
<stop stop-color="#97A03B"/>
<stop offset="1" stop-color="#6C7D47"/>
</linearGradient>
<linearGradient id="paint6_linear_4_204" x1="13.1486" y1="7.38451" x2="18.3022" y2="7.38451" gradientUnits="userSpaceOnUse">
<stop stop-color="#C08552"/>
<stop offset="1" stop-color="#895738"/>
</linearGradient>
<linearGradient id="paint7_linear_4_204" x1="17.5668" y1="30.4807" x2="17.5668" y2="42.1849" gradientUnits="userSpaceOnUse">
<stop stop-color="#972E07" stop-opacity="0"/>
<stop offset="1" stop-color="#582707"/>
</linearGradient>
<linearGradient id="paint8_linear_4_204" x1="23.2515" y1="18.3101" x2="17.4039" y2="5.66903" gradientUnits="userSpaceOnUse">
<stop stop-color="#972E07" stop-opacity="0"/>
<stop offset="1" stop-color="#582707"/>
</linearGradient>
<linearGradient id="paint9_linear_4_204" x1="17.5209" y1="10.5076" x2="17.5209" y2="13.7496" gradientUnits="userSpaceOnUse">
<stop stop-color="#972E07" stop-opacity="0"/>
<stop offset="1" stop-color="#582707"/>
</linearGradient>
<linearGradient id="paint10_linear_4_204" x1="10.9423" y1="17.7139" x2="-4.88929" y2="7.04289" gradientUnits="userSpaceOnUse">
<stop offset="0.0013" stop-color="#E7EEED" stop-opacity="0"/>
<stop offset="0.7731" stop-color="#F9FBFA" stop-opacity="0.772549"/>
<stop offset="1" stop-color="white"/>
</linearGradient>
<clipPath id="clip0_4_204">
<rect width="35" height="35" fill="white" transform="translate(0 0.469933)"/>
</clipPath>
</defs>
</svg>
