<svg width="24" height="26" viewBox="0 0 24 26" fill="none" xmlns="http://www.w3.org/2000/svg">
<rect y="0.754089" width="24" height="25.2459" fill="white"/>
<path d="M20.05 7.92575L14.29 3.68654C12.72 2.52944 10.31 2.59256 8.8 3.82329L3.79 7.93627C2.79 8.75676 2 10.4398 2 11.7652V19.0234C2 21.7058 4.07 23.8938 6.62 23.8938H17.4C19.95 23.8938 22.02 21.7163 22.02 19.0339V11.902C22.02 10.4819 21.15 8.73572 20.05 7.92575ZM12.76 19.6861C12.76 20.1174 12.42 20.4751 12.01 20.4751C11.6 20.4751 11.26 20.1174 11.26 19.6861V16.5304C11.26 16.0991 11.6 15.7415 12.01 15.7415C12.42 15.7415 12.76 16.0991 12.76 16.5304V19.6861Z" fill="#06161C"/>
</svg>
