<svg width="35" height="35" viewBox="0 0 35 35" fill="none" xmlns="http://www.w3.org/2000/svg">
<g clip-path="url(#clip0_4_255)">
<path d="M35 12.6793V16.5899C35 18.1306 34.685 19.6399 34.09 21.0359C33.4943 22.4319 32.6186 23.7146 31.4973 24.8039C28.9429 27.2859 25.4779 28.6799 21.8654 28.6799H21.3184C20.0104 28.6799 18.7291 28.9326 17.5439 29.4093C16.358 29.8866 15.2682 30.5879 14.3431 31.4866C12.7029 33.0799 10.5522 33.8773 8.40206 33.8773C6.25196 33.8773 4.10118 33.0799 2.46098 31.4866C0.885294 29.9559 0 27.8799 0 25.7153V21.3586C0 20.2759 0.22098 20.0459 0.639608 19.8953C1.05824 19.7439 1.67314 19.6726 2.46098 18.9073C3.35176 18.0413 4.04765 17.0213 4.52118 15.9119C4.9549 14.8939 5.20196 13.7986 5.23902 12.6793H35Z" fill="url(#paint0_linear_4_255)"/>
<path d="M35 12.6793V16.5899C35 18.1306 34.685 19.6399 34.09 21.0359C33.4943 22.4319 32.6186 23.7146 31.4973 24.8039C28.9429 27.2859 25.4779 28.6799 21.8654 28.6799H21.3184C20.0104 28.6799 18.7291 28.9326 17.5439 29.4093C16.358 29.8866 15.2682 30.5879 14.3431 31.4866C12.7029 33.0799 10.5522 33.8773 8.40206 33.8773C6.25196 33.8773 4.10118 33.0799 2.46098 31.4866C0.885294 29.9559 0 27.8799 0 25.7153V21.3586C0 20.2759 0.22098 20.0459 0.639608 19.8953C1.05824 19.7439 1.67314 19.6726 2.46098 18.9073C3.35176 18.0413 4.04765 17.0213 4.52118 15.9119C4.9549 14.8939 5.20196 13.7986 5.23902 12.6793H35Z" fill="url(#paint1_linear_4_255)"/>
<path d="M0.0194244 26.2626C0.155307 28.2273 1.01864 30.0855 2.46098 31.4866C4.10118 33.0799 6.25197 33.8773 8.40206 33.8773C10.5522 33.8773 12.7029 33.0799 14.3431 31.4866C15.2682 30.5879 16.358 29.8866 17.5439 29.4093C18.7291 28.9326 20.0104 28.6799 21.3184 28.6799H21.8654C24.6941 28.6799 27.4322 27.8251 29.7136 26.2626H0.0194244Z" fill="url(#paint2_linear_4_255)"/>
<path d="M5.24465 8.46767C5.24465 10.9163 4.2433 13.2647 2.46091 14.9961C0.885226 16.5268 0 18.6029 0 20.7676V21.8041C0 23.9688 0.885226 26.0449 2.46091 27.5755C5.74213 30.763 11.0621 30.763 14.3433 27.5755C16.1932 25.7785 18.7021 24.769 21.3182 24.769H21.8651C25.4779 24.769 28.9429 23.3748 31.4975 20.8931C33.7401 18.7146 35 15.7599 35 12.6791C35 6.26347 29.6462 1.0626 23.0419 1.0626H12.8675C8.65749 1.0626 5.24465 4.37793 5.24465 8.46767Z" fill="url(#paint3_linear_4_255)"/>
<path d="M30.36 19.6404C31.4285 18.5809 31.7232 16.9914 31.0946 15.6397C30.9742 15.381 30.8467 15.1264 30.7117 14.8762C29.6645 12.9342 28.2254 11.3247 26.5281 10.1847C26.5138 10.1965 26.4999 10.2085 26.4856 10.2202C24.5426 11.8049 22.1221 12.8527 19.4938 13.2729C19.909 14.7825 20.1195 16.3541 20.1195 17.9589C20.1195 19.7922 19.8445 21.5825 19.3114 23.2696C19.9676 23.1589 20.6384 23.1023 21.3182 23.1023H21.8651C25.0455 23.1023 28.0355 21.8991 30.2843 19.7145C30.3097 19.69 30.3349 19.6653 30.36 19.6404Z" fill="url(#paint4_linear_4_255)"/>
<path d="M8.33569 28.2992C10.1465 28.3162 11.8516 27.6391 13.1301 26.3971C14.0745 25.4797 15.1533 24.7408 16.3234 24.1969C17.0049 23.8801 17.5098 23.2921 17.723 22.5881C18.1656 21.1263 18.4038 19.5651 18.4038 17.9591C18.4038 16.4119 18.1896 14.9003 17.7666 13.4561C17.4659 13.4722 17.1635 13.4811 16.8594 13.4811C13.2301 13.4811 9.81146 12.3231 7.23333 10.2203C7.10699 10.1173 6.98421 10.0121 6.86336 9.90573C6.54513 12.2655 5.44613 14.4471 3.68845 16.1607C2.43758 17.3802 1.71568 19.0189 1.71568 20.7405V21.8041C1.71568 23.5605 2.42852 25.2106 3.72132 26.4424C4.95174 27.6149 6.61225 28.2831 8.33569 28.2992Z" fill="url(#paint5_linear_4_255)"/>
<path d="M23.0419 2.72927H12.8675C10.1899 2.72927 7.92372 4.4692 7.20183 6.84613C7.05222 7.3388 7.18762 7.874 7.55773 8.24093C9.75504 10.4195 13.1083 11.8143 16.8595 11.8143C21.9576 11.8143 26.3212 9.23833 28.0459 5.6196C28.408 4.8598 28.0544 3.96387 27.2699 3.61707C25.9803 3.047 24.5486 2.72927 23.0419 2.72927Z" fill="url(#paint6_linear_4_255)"/>
<path d="M29.9971 5.38227C29.534 6.68647 28.7869 7.9102 27.7809 9.0026C30.0165 10.5826 31.7685 12.8283 32.8833 15.4497C33.1471 14.5605 33.2842 13.6301 33.2842 12.6791C33.2843 9.79873 32.0175 7.20087 29.9971 5.38227Z" fill="url(#paint7_linear_4_255)"/>
<path d="M18.4038 17.9591C18.4038 19.5651 18.1657 21.1264 17.723 22.5884C17.5096 23.2924 17.0045 23.8804 16.323 24.1971C15.1536 24.7411 14.0748 25.4797 13.1305 26.3971C11.8513 27.6391 10.1466 28.3164 8.33549 28.2991C6.61225 28.2831 4.95147 27.6151 3.72098 26.4424C2.42872 25.2104 1.71568 23.5604 1.71568 21.8044V20.7404C1.71568 19.5871 2.0396 18.4704 2.63117 17.4924H18.3963C18.4018 17.6477 18.4038 17.8031 18.4038 17.9591Z" fill="url(#paint8_linear_4_255)"/>
<path d="M8.83037 24.4242C10.8264 24.4242 12.4444 22.8524 12.4444 20.9134C12.4444 18.9744 10.8264 17.4026 8.83037 17.4026C6.83438 17.4026 5.21631 18.9744 5.21631 20.9134C5.21631 22.8524 6.83438 24.4242 8.83037 24.4242Z" fill="url(#paint9_linear_4_255)"/>
<path d="M5.217 20.9703C5.23161 21.8497 5.58401 22.7249 6.27482 23.3959C7.68621 24.767 9.97453 24.767 11.3858 23.3959C12.0767 22.7249 12.4291 21.8498 12.4437 20.9703H5.217Z" fill="url(#paint10_linear_4_255)"/>
<path d="M31.4012 17.4924C31.3154 18.2844 30.9592 19.0464 30.3601 19.6404C30.3347 19.6651 30.31 19.6897 30.2846 19.7144C28.0357 21.8991 25.0456 23.1024 21.8654 23.1024H21.3184C20.6383 23.1024 19.9678 23.1591 19.3111 23.2697C19.8443 21.5824 20.1195 19.7924 20.1195 17.9591C20.1195 17.8031 20.1175 17.6477 20.1126 17.4924H31.4012Z" fill="url(#paint11_linear_4_255)"/>
</g>
<defs>
<linearGradient id="paint0_linear_4_255" x1="11.6632" y1="10.2785" x2="20.1555" y2="25.6899" gradientUnits="userSpaceOnUse">
<stop stop-color="#FFDFCF"/>
<stop offset="1" stop-color="#FFA78F"/>
</linearGradient>
<linearGradient id="paint1_linear_4_255" x1="-1.54172" y1="5.65853" x2="31.772" y2="34.2977" gradientUnits="userSpaceOnUse">
<stop stop-color="#F89580" stop-opacity="0"/>
<stop offset="0.2608" stop-color="#F2917C" stop-opacity="0.262"/>
<stop offset="0.5874" stop-color="#E38670" stop-opacity="0.589"/>
<stop offset="0.9476" stop-color="#CA735D" stop-opacity="0.95"/>
<stop offset="0.9972" stop-color="#C5715A"/>
</linearGradient>
<linearGradient id="paint2_linear_4_255" x1="14.8665" y1="27.6848" x2="14.8665" y2="33.3911" gradientUnits="userSpaceOnUse">
<stop stop-color="#F89580" stop-opacity="0"/>
<stop offset="0.3584" stop-color="#E98A75" stop-opacity="0.359"/>
<stop offset="0.9972" stop-color="#C5715A"/>
</linearGradient>
<linearGradient id="paint3_linear_4_255" x1="4.39751" y1="3.79807" x2="26.1298" y2="26.1695" gradientUnits="userSpaceOnUse">
<stop stop-color="#FFDFCF"/>
<stop offset="1" stop-color="#FFA78F"/>
</linearGradient>
<linearGradient id="paint4_linear_4_255" x1="19.7328" y1="13.4965" x2="29.99" y2="24.0553" gradientUnits="userSpaceOnUse">
<stop stop-color="#FD4755"/>
<stop offset="1" stop-color="#D2024E"/>
</linearGradient>
<linearGradient id="paint5_linear_4_255" x1="3.9622" y1="13.3615" x2="18.3175" y2="28.139" gradientUnits="userSpaceOnUse">
<stop stop-color="#FD4755"/>
<stop offset="1" stop-color="#D2024E"/>
</linearGradient>
<linearGradient id="paint6_linear_4_255" x1="12.5962" y1="1.18046" x2="25.202" y2="14.1571" gradientUnits="userSpaceOnUse">
<stop stop-color="#FD4755"/>
<stop offset="1" stop-color="#D2024E"/>
</linearGradient>
<linearGradient id="paint7_linear_4_255" x1="28.3088" y1="7.3688" x2="36.1097" y2="15.3992" gradientUnits="userSpaceOnUse">
<stop stop-color="#FD4755"/>
<stop offset="1" stop-color="#D2024E"/>
</linearGradient>
<linearGradient id="paint8_linear_4_255" x1="10.0598" y1="19.4477" x2="10.0598" y2="27.9209" gradientUnits="userSpaceOnUse">
<stop stop-color="#C00148" stop-opacity="0"/>
<stop offset="0.3112" stop-color="#AA0E3F" stop-opacity="0.311"/>
<stop offset="0.9578" stop-color="#713028" stop-opacity="0.958"/>
<stop offset="1" stop-color="#6D3326"/>
</linearGradient>
<linearGradient id="paint9_linear_4_255" x1="6.64719" y1="18.7926" x2="11.6696" y2="23.9627" gradientUnits="userSpaceOnUse">
<stop stop-color="#EAF6FF"/>
<stop offset="1" stop-color="#B3DAFE"/>
</linearGradient>
<linearGradient id="paint10_linear_4_255" x1="8.83037" y1="21.4144" x2="8.83037" y2="24.1495" gradientUnits="userSpaceOnUse">
<stop stop-color="#D8ECFE" stop-opacity="0"/>
<stop offset="0.7867" stop-color="#9BD1FE" stop-opacity="0.787"/>
<stop offset="1" stop-color="#8AC9FE"/>
</linearGradient>
<linearGradient id="paint11_linear_4_255" x1="25.3561" y1="18.4477" x2="25.3561" y2="23.3487" gradientUnits="userSpaceOnUse">
<stop stop-color="#C00148" stop-opacity="0"/>
<stop offset="0.3112" stop-color="#AA0E3F" stop-opacity="0.311"/>
<stop offset="0.9578" stop-color="#713028" stop-opacity="0.958"/>
<stop offset="1" stop-color="#6D3326"/>
</linearGradient>
<clipPath id="clip0_4_255">
<rect width="35" height="34" fill="white" transform="translate(0 0.469933)"/>
</clipPath>
</defs>
</svg>
