<svg width="16" height="17" viewBox="0 0 16 17" fill="none" xmlns="http://www.w3.org/2000/svg">
<g clip-path="url(#clip0_4_283)">
<path d="M15 7.37978H9V1.0683C9 0.487349 8.55228 0.0163879 8 0.0163879C7.44772 0.0163879 7 0.487349 7 1.0683V7.37978H1C0.447719 7.37978 0 7.85074 0 8.43169C0 9.01264 0.447719 9.4836 1 9.4836H7V15.7951C7 16.376 7.44772 16.847 8 16.847C8.55228 16.847 9 16.376 9 15.7951V9.4836H15C15.5523 9.4836 16 9.01264 16 8.43169C16 7.85074 15.5523 7.37978 15 7.37978Z" fill="white"/>
</g>
<defs>
<clipPath id="clip0_4_283">
<rect width="16" height="16.8306" fill="white" transform="translate(0 0.0163879)"/>
</clipPath>
</defs>
</svg>
