<svg width="35" height="35" viewBox="0 0 35 35" fill="none" xmlns="http://www.w3.org/2000/svg">
<g clip-path="url(#clip0_4_220)">
<path d="M26.9748 21.2606C26.301 20.5802 25.6272 19.8998 24.9534 19.2195C23.3449 20.6083 21.9816 22.1705 20.8744 23.8716C20.7408 24.0769 20.4158 24.0008 20.3944 23.7588L19.7993 17.0383H15.2006L14.6056 23.7588C14.5842 24.0008 14.2591 24.0769 14.1255 23.8716C13.0184 22.1705 11.655 20.6083 10.0466 19.2194C9.37279 19.8998 8.69894 20.5802 8.02509 21.2605C10.6915 24.2091 12.7578 28.1982 13.4139 31.7626C13.6263 32.9167 14.6704 33.7505 15.8772 33.7499C16.898 33.7495 18.102 33.7494 19.123 33.7498C20.3296 33.7503 21.3736 32.9165 21.586 31.7626C22.2421 28.1983 24.3085 24.2091 26.9748 21.2606Z" fill="url(#paint0_linear_4_220)"/>
<path d="M20.36 23.3699L19.7994 17.0383H15.2006L14.64 23.3699H20.36Z" fill="url(#paint1_linear_4_220)"/>
<path d="M14.6056 23.7588C14.5842 24.0008 14.2591 24.0769 14.1255 23.8716C13.0184 22.1705 11.655 20.6083 10.0466 19.2195C9.37279 19.8999 8.69894 20.5803 8.02509 21.2606C10.6915 24.2091 12.7578 28.1983 13.4139 31.7627C13.4752 32.0958 13.6061 32.402 13.79 32.6695L14.6056 23.7588Z" fill="url(#paint2_linear_4_220)"/>
<path d="M14.6056 23.7588C14.5842 24.0008 14.2591 24.0769 14.1255 23.8716C13.0184 22.1705 11.655 20.6083 10.0466 19.2195C9.37279 19.8999 8.69894 20.5803 8.02509 21.2606C10.6915 24.2091 12.7578 28.1983 13.4139 31.7627C13.4752 32.0958 13.6061 32.402 13.79 32.6695L14.6056 23.7588Z" fill="url(#paint3_linear_4_220)"/>
<path d="M20.3944 23.7588C20.4158 24.0008 20.7409 24.0769 20.8745 23.8716C21.9816 22.1705 23.345 20.6083 24.9534 19.2195C25.6272 19.8999 26.3011 20.5803 26.9749 21.2606C24.3085 24.2091 22.2422 28.1983 21.5861 31.7627C21.5248 32.0958 21.3939 32.402 21.21 32.6695L20.3944 23.7588Z" fill="url(#paint4_linear_4_220)"/>
<path d="M20.3944 23.7588C20.4158 24.0008 20.7409 24.0769 20.8745 23.8716C21.9816 22.1705 23.345 20.6083 24.9534 19.2195C25.6272 19.8999 26.3011 20.5803 26.9749 21.2606C24.3085 24.2091 22.2422 28.1983 21.5861 31.7627C21.5248 32.0958 21.3939 32.402 21.21 32.6695L20.3944 23.7588Z" fill="url(#paint5_linear_4_220)"/>
<path d="M11.6868 26.707C12.509 28.3869 13.1116 30.1198 13.414 31.7627C13.6264 32.9167 14.6705 33.7505 15.8774 33.75C16.8981 33.7495 18.1021 33.7495 19.1231 33.7499C20.3298 33.7503 21.3737 32.9165 21.5861 31.7627C21.8885 30.1198 22.4911 28.3869 23.3134 26.707H11.6868Z" fill="url(#paint6_linear_4_220)"/>
<path d="M29.6479 12.4092C29.6462 12.4092 29.6447 12.4092 29.643 12.4092C29.4169 12.4094 29.2474 12.2061 29.3036 11.9933C29.4253 11.5338 29.4841 11.0499 29.4697 10.5503C29.391 7.8384 27.1385 5.618 24.3481 5.50447C23.9329 5.48753 23.5277 5.517 23.1373 5.58753C22.955 5.62047 22.7772 5.50593 22.7396 5.32947C22.2358 2.96626 20.082 1.18987 17.5 1.18987C14.918 1.18987 12.7642 2.96627 12.2604 5.3294C12.2228 5.50587 12.0451 5.6204 11.8627 5.58747C11.4723 5.517 11.0671 5.48753 10.6519 5.5044C7.86148 5.618 5.60906 7.83833 5.53034 10.5503C5.51586 11.0499 5.57474 11.5338 5.69635 11.9933C5.75269 12.2061 5.58318 12.4094 5.35699 12.4091C5.35534 12.4091 5.35376 12.4091 5.35212 12.4091C2.3533 12.4091 -0.069452 14.8049 0.0015088 17.7337C0.0690382 20.5207 2.43126 22.7812 5.30092 22.8073C6.95738 22.8223 8.442 22.1061 9.43394 20.9709C9.55322 20.8345 9.76349 20.8132 9.90761 20.9247C10.8219 21.6321 11.9797 22.055 13.2394 22.055C14.8153 22.055 16.2311 21.3927 17.2105 20.3397C17.3502 20.1895 17.5915 20.1911 17.7287 20.3435C18.7098 21.4343 20.1523 22.1234 21.7605 22.1234C23.036 22.1234 24.2068 21.6896 25.1262 20.9661C25.2692 20.8535 25.4794 20.8733 25.5998 21.0085C26.5958 22.1266 28.0738 22.8283 29.7205 22.807C32.5818 22.7701 34.9312 20.5126 34.9984 17.7335C35.0694 14.8049 32.6466 12.4092 29.6479 12.4092Z" fill="url(#paint7_linear_4_220)"/>
<path d="M0.434891 15.5561C0.139999 16.2219 -0.0172952 16.9587 0.00150874 17.7337C0.0690382 20.5207 2.43126 22.7813 5.30092 22.8073C6.95738 22.8224 8.442 22.1062 9.43394 20.971C9.55322 20.8345 9.76349 20.8133 9.90761 20.9248C10.8219 21.6322 11.9797 22.0551 13.2394 22.0551C14.8153 22.0551 16.2311 21.3927 17.2105 20.3397C17.3502 20.1895 17.5915 20.1912 17.7287 20.3436C18.7098 21.4344 20.1523 22.1235 21.7605 22.1235C23.036 22.1235 24.2068 21.6897 25.1262 20.9661C25.2692 20.8536 25.4795 20.8733 25.5998 21.0085C26.5958 22.1267 28.0738 22.8283 29.7205 22.8071C32.5818 22.7702 34.9312 20.5127 34.9984 17.7336C35.0172 16.9587 34.8599 16.2218 34.565 15.5561H0.434891Z" fill="url(#paint8_linear_4_220)"/>
<path d="M29.4684 12.3643C29.3392 12.2929 29.2633 12.1457 29.3036 11.9933C29.4253 11.5338 29.4841 11.0499 29.4697 10.5503C29.391 7.8384 27.1385 5.618 24.3481 5.50447C23.9329 5.48753 23.5277 5.517 23.1373 5.58753C23.0896 5.59613 23.0424 5.5942 22.9978 5.5842C20.5606 6.12727 18.7422 8.24547 18.7422 10.7777C18.7422 13.7214 21.1987 16.1077 24.2289 16.1077C24.3387 16.1077 24.4474 16.1035 24.5557 16.0973C25.2025 14.036 27.1578 12.4539 29.4684 12.3643Z" fill="url(#paint9_linear_4_220)"/>
<path d="M12.0022 5.58413C11.9576 5.59413 11.9104 5.59607 11.8627 5.58747C11.4724 5.517 11.0671 5.48747 10.6519 5.5044C7.86148 5.618 5.60906 7.83833 5.53034 10.5503C5.51586 11.0499 5.57474 11.5338 5.69635 11.9933C5.73671 12.1457 5.66087 12.2929 5.53158 12.3642C5.53158 12.3642 9.00728 12.3032 10.4443 16.0971C10.5525 16.1033 10.6612 16.1075 10.771 16.1075C13.8013 16.1075 16.2577 13.7213 16.2577 10.7776C16.2578 8.2454 14.4394 6.12713 12.0022 5.58413Z" fill="url(#paint10_linear_4_220)"/>
</g>
<defs>
<linearGradient id="paint0_linear_4_220" x1="15.3916" y1="22.9531" x2="22.9494" y2="29.122" gradientUnits="userSpaceOnUse">
<stop stop-color="#BBEC6C"/>
<stop offset="1" stop-color="#81B823"/>
</linearGradient>
<linearGradient id="paint1_linear_4_220" x1="17.5" y1="22.8699" x2="17.5" y2="19.7886" gradientUnits="userSpaceOnUse">
<stop stop-color="#47A920" stop-opacity="0"/>
<stop offset="0.2298" stop-color="#45932F" stop-opacity="0.23"/>
<stop offset="0.7392" stop-color="#40694D" stop-opacity="0.739"/>
<stop offset="1" stop-color="#3E5959"/>
</linearGradient>
<linearGradient id="paint2_linear_4_220" x1="12.695" y1="24.9432" x2="15.1168" y2="22.0405" gradientUnits="userSpaceOnUse">
<stop stop-color="#47A920" stop-opacity="0"/>
<stop offset="0.242" stop-color="#459A2A" stop-opacity="0.242"/>
<stop offset="0.7001" stop-color="#417545" stop-opacity="0.7"/>
<stop offset="1" stop-color="#3E5959"/>
</linearGradient>
<linearGradient id="paint3_linear_4_220" x1="11.6559" y1="23.6631" x2="9.72072" y2="19.9828" gradientUnits="userSpaceOnUse">
<stop stop-color="#47A920" stop-opacity="0"/>
<stop offset="0.242" stop-color="#459A2A" stop-opacity="0.242"/>
<stop offset="0.7001" stop-color="#417545" stop-opacity="0.7"/>
<stop offset="1" stop-color="#3E5959"/>
</linearGradient>
<linearGradient id="paint4_linear_4_220" x1="22.305" y1="24.9432" x2="19.8832" y2="22.0405" gradientUnits="userSpaceOnUse">
<stop stop-color="#47A920" stop-opacity="0"/>
<stop offset="0.242" stop-color="#459A2A" stop-opacity="0.242"/>
<stop offset="0.7001" stop-color="#417545" stop-opacity="0.7"/>
<stop offset="1" stop-color="#3E5959"/>
</linearGradient>
<linearGradient id="paint5_linear_4_220" x1="23.2869" y1="23.7083" x2="24.5565" y2="19.6535" gradientUnits="userSpaceOnUse">
<stop stop-color="#47A920" stop-opacity="0"/>
<stop offset="0.242" stop-color="#459A2A" stop-opacity="0.242"/>
<stop offset="0.7001" stop-color="#417545" stop-opacity="0.7"/>
<stop offset="1" stop-color="#3E5959"/>
</linearGradient>
<linearGradient id="paint6_linear_4_220" x1="17.5" y1="29.7588" x2="17.5" y2="34.0255" gradientUnits="userSpaceOnUse">
<stop stop-color="#47A920" stop-opacity="0"/>
<stop offset="0.242" stop-color="#459A2A" stop-opacity="0.242"/>
<stop offset="0.7001" stop-color="#417545" stop-opacity="0.7"/>
<stop offset="1" stop-color="#3E5959"/>
</linearGradient>
<linearGradient id="paint7_linear_4_220" x1="8.69777" y1="8.28733" x2="22.6816" y2="22.6824" gradientUnits="userSpaceOnUse">
<stop stop-color="#8BC727"/>
<stop offset="1" stop-color="#017B4E"/>
</linearGradient>
<linearGradient id="paint8_linear_4_220" x1="17.5" y1="16.9588" x2="17.5" y2="23.3144" gradientUnits="userSpaceOnUse">
<stop stop-color="#026841" stop-opacity="0"/>
<stop offset="0.2377" stop-color="#0A6644" stop-opacity="0.238"/>
<stop offset="0.6075" stop-color="#20614D" stop-opacity="0.608"/>
<stop offset="1" stop-color="#3E5959"/>
</linearGradient>
<linearGradient id="paint9_linear_4_220" x1="22.9216" y1="10.8037" x2="31.2483" y2="10.8037" gradientUnits="userSpaceOnUse">
<stop stop-color="#026841" stop-opacity="0"/>
<stop offset="0.2377" stop-color="#0A6644" stop-opacity="0.238"/>
<stop offset="0.6075" stop-color="#20614D" stop-opacity="0.608"/>
<stop offset="1" stop-color="#3E5959"/>
</linearGradient>
<linearGradient id="paint10_linear_4_220" x1="10.4808" y1="10.9692" x2="1.3821" y2="15.3494" gradientUnits="userSpaceOnUse">
<stop stop-color="#026841" stop-opacity="0"/>
<stop offset="0.2377" stop-color="#0A6644" stop-opacity="0.238"/>
<stop offset="0.6075" stop-color="#20614D" stop-opacity="0.608"/>
<stop offset="1" stop-color="#3E5959"/>
</linearGradient>
<clipPath id="clip0_4_220">
<rect width="35" height="34" fill="white" transform="translate(0 0.469933)"/>
</clipPath>
</defs>
</svg>
